# File created by Blade
# Date/Time:  Thu Jan 22 19:49:01 2015
# Frame Rate: 120.000 fps
#------------------------------------------------------
:FULLY-SPECIFIED
:DEGREES
2768
root -2.158279 3.378533 -9.419005 -28.304144 -22.688648 1.955124
RightUpLeg -75.023017 31.696248 58.366067
RightLeg 109.510525 -0.000000 -0.000000
RightFoot 17.497575 -1.702736 -13.112259
RightToeBase 4.810282 -0.000000 -0.000000
LeftUpLeg -55.105938 12.480883 14.711867
LeftLeg 0.522208 -0.000000 -0.000000
LeftFoot 23.942243 6.390805 -11.251303
LeftToeBase 0.536656 -0.000000 -0.000000
Spine 53.271405 -45.410881 -39.789120
RightShoulder -15.327523 -16.129249 -14.025725
RightArm 21.285886 -45.226098 66.417556
RightForeArm 7.229768 -0.000000 26.179233
RightHand 0.131888 -0.000000 3.653942
RightHandThumb1 -24.326973 -0.000000 -32.862282
LeftShoulder 3.227671 -18.143274 25.137606
LeftArm 64.505910 64.262063 -11.625274
LeftForeArm 24.848667 0.000000 73.232458
LeftHand 7.245593 -0.000000 -16.600546
LeftHandThumb1 -26.253704 0.000000 33.147579
Head 2.800626 -63.229043 3.894757
2769
root -2.158686 3.377287 -9.417840 -28.288490 -22.700667 1.920517
RightUpLeg -75.015991 31.681954 58.406159
RightLeg 109.511670 -0.000000 -0.000000
RightFoot 17.478290 -1.707272 -13.162417
RightToeBase 4.783715 -0.000000 -0.000000
LeftUpLeg -55.127292 12.493483 14.724645
LeftLeg 0.535677 -0.000000 -0.000000
LeftFoot 23.949802 6.379808 -11.254921
LeftToeBase 0.516538 -0.000000 -0.000000
Spine 53.262311 -45.378812 -39.759327
RightShoulder -15.297094 -16.119011 -14.002796
RightArm 21.182710 -45.148112 66.514218
RightForeArm 7.171849 -0.000000 26.157030
RightHand 0.183939 -0.000000 3.534347
RightHandThumb1 -24.326973 -0.000000 -32.862282
LeftShoulder 3.236809 -18.147098 25.143868
LeftArm 64.640635 64.217228 -11.514015
LeftForeArm 24.962543 0.000000 73.236219
LeftHand 7.242865 0.000000 -16.535947
LeftHandThumb1 -26.253704 0.000000 33.147579
Head 2.771818 -63.293533 4.027165
2770
root -2.156406 3.375249 -9.415041 -28.270002 -22.707780 1.891348
RightUpLeg -75.027451 31.669418 58.432194
RightLeg 109.522215 -0.000000 -0.000000
RightFoot 17.460062 -1.705002 -13.141797
RightToeBase 4.804923 -0.000000 -0.000000
LeftUpLeg -55.151046 12.489343 14.738114
LeftLeg 0.546230 -0.000000 -0.000000
LeftFoot 23.965122 6.354549 -11.191720
LeftToeBase 0.376692 -0.000000 -0.000000
Spine 53.255231 -45.359485 -39.730554
RightShoulder -15.300123 -16.122493 -13.974568
RightArm 21.138875 -45.061440 66.559217
RightForeArm 7.129758 0.000000 26.138150
RightHand 0.176813 0.000000 3.533999
RightHandThumb1 -24.326973 -0.000000 -32.862282
LeftShoulder 3.245615 -18.163761 25.111148
LeftArm 64.823554 64.168659 -11.297064
LeftForeArm 24.968763 0.000000 73.289641
LeftHand 7.195156 0.000000 -16.479393
LeftHandThumb1 -26.253704 0.000000 33.147579
Head 2.700437 -63.322429 4.181508
2771
root -2.154512 3.373756 -9.413305 -28.250590 -22.712506 1.854876
RightUpLeg -75.036096 31.656365 58.464132
RightLeg 109.533440 -0.000000 -0.000000
RightFoot 17.439867 -1.724099 -13.152237
RightToeBase 4.792161 -0.000000 -0.000000
LeftUpLeg -55.171569 12.478734 14.765661
LeftLeg 0.551439 -0.000000 -0.000000
LeftFoot 23.965173 6.368407 -11.255558
LeftToeBase 0.330307 -0.000000 -0.000000
Spine 53.245948 -45.341977 -39.691412
RightShoulder -15.309736 -16.146174 -13.947501
RightArm 21.103574 -44.960772 66.605415
RightForeArm 7.063223 -0.000000 26.126859
RightHand 0.237816 -0.000000 3.484210
RightHandThumb1 -24.326973 -0.000000 -32.862282
LeftShoulder 3.268038 -18.179514 25.117660
LeftArm 64.863021 64.140254 -11.279950
LeftForeArm 25.026599 -0.000000 73.289445
LeftHand 7.202343 -0.000000 -16.448113
LeftHandThumb1 -26.253704 0.000000 33.147579
Head 2.634194 -63.334698 4.299329
2772
root -2.153422 3.372967 -9.412112 -28.241466 -22.718478 1.818250
RightUpLeg -75.034871 31.640212 58.487954
RightLeg 109.533927 -0.000000 -0.000000
RightFoot 17.406095 -1.712134 -13.162611
RightToeBase 4.804097 -0.000000 -0.000000
LeftUpLeg -55.179944 12.482150 14.780182
LeftLeg 0.551788 -0.000000 -0.000000
LeftFoot 23.971583 6.347034 -11.341617
LeftToeBase 0.286047 -0.000000 -0.000000
Spine 53.259340 -45.318143 -39.670660
RightShoulder -15.327533 -16.149845 -13.921673
RightArm 21.103532 -44.948968 66.603859
RightForeArm 7.095888 -0.000000 26.113956
RightHand 0.270097 -0.000000 3.400711
RightHandThumb1 -24.326973 -0.000000 -32.862282
LeftShoulder 3.259702 -18.204311 25.140119
LeftArm 64.923664 64.129381 -11.252312
LeftForeArm 25.026618 -0.000000 73.273433
LeftHand 7.227953 0.000000 -16.384765
LeftHandThumb1 -26.253704 0.000000 33.147579
Head 2.515168 -63.322529 4.460257
2773
root -2.149438 3.371508 -9.409769 -28.229983 -22.703025 1.799131
RightUpLeg -75.057555 31.634206 58.488947
RightLeg 109.551732 -0.000000 -0.000000
RightFoot 17.381591 -1.735393 -13.197966
RightToeBase 4.786861 -0.000000 -0.000000
LeftUpLeg -55.197343 12.461898 14.768561
LeftLeg 0.544694 -0.000000 -0.000000
LeftFoot 23.978890 6.386716 -11.416642
LeftToeBase 0.232635 -0.000000 -0.000000
Spine 53.266470 -45.313834 -39.663011
RightShoulder -15.356596 -16.144043 -13.910663
RightArm 21.088314 -44.893599 66.636255
RightForeArm 7.086621 -0.000000 26.082335
RightHand 0.275326 0.000000 3.409784
RightHandThumb1 -24.326973 -0.000000 -32.862282
LeftShoulder 3.261068 -18.244220 25.151760
LeftArm 64.948339 64.141144 -11.245881
LeftForeArm 25.004094 -0.000000 73.273876
LeftHand 7.251414 -0.000000 -16.350265
LeftHandThumb1 -26.253704 0.000000 33.147579
Head 2.390807 -63.311906 4.600410
2774
root -2.146023 3.370886 -9.407379 -28.216391 -22.688761 1.767715
RightUpLeg -75.079249 31.638566 58.491305
RightLeg 109.566680 -0.000000 -0.000000
RightFoot 17.347975 -1.770403 -13.192866
RightToeBase 4.784338 -0.000000 -0.000000
LeftUpLeg -55.218365 12.445981 14.765984
LeftLeg 0.551704 -0.000000 -0.000000
LeftFoot 23.982099 6.409173 -11.525895
LeftToeBase 0.191445 -0.000000 -0.000000
Spine 53.272491 -45.307877 -39.633795
RightShoulder -15.400702 -16.118833 -13.900775
RightArm 21.060737 -44.845455 66.678250
RightForeArm 7.064390 -0.000000 26.039876
RightHand 0.319512 -0.000000 3.476215
RightHandThumb1 -24.326973 -0.000000 -32.862282
LeftShoulder 3.267884 -18.305947 25.157623
LeftArm 64.947140 64.166536 -11.261257
LeftForeArm 25.020466 -0.000000 73.292644
LeftHand 7.288126 -0.000000 -16.331915
LeftHandThumb1 -26.253704 0.000000 33.147579
Head 2.270826 -63.334303 4.724078
2775
root -2.143412 3.370248 -9.406545 -28.202540 -22.683700 1.735464
RightUpLeg -75.089457 31.625422 58.512763
RightLeg 109.570661 -0.000000 -0.000000
RightFoot 17.349681 -1.783547 -13.247372
RightToeBase 4.739087 -0.000000 -0.000000
LeftUpLeg -55.238539 12.449103 14.758429
LeftLeg 0.554269 -0.000000 -0.000000
LeftFoot 23.986912 6.443011 -11.628626
LeftToeBase 0.204438 -0.000000 -0.000000
Spine 53.279023 -45.297541 -39.601022
RightShoulder -15.438946 -16.112231 -13.885697
RightArm 21.057457 -44.786040 66.698949
RightForeArm 7.074969 -0.000000 25.991429
RightHand 0.375977 0.000000 3.594247
RightHandThumb1 -24.326973 -0.000000 -32.862282
LeftShoulder 3.239102 -18.369913 25.223790
LeftArm 64.864607 64.202665 -11.441522
LeftForeArm 25.093508 0.000000 73.263630
LeftHand 7.409907 -0.000000 -16.372131
LeftHandThumb1 -26.253704 0.000000 33.147579
Head 2.092790 -63.350980 4.881203
2776
root -2.139896 3.369909 -9.405679 -28.198391 -22.675117 1.709040
RightUpLeg -75.094907 31.601612 58.526184
RightLeg 109.581004 -0.000000 -0.000000
RightFoot 17.313720 -1.787895 -13.280723
RightToeBase 4.749077 -0.000000 -0.000000
LeftUpLeg -55.251680 12.447234 14.745321
LeftLeg 0.564480 -0.000000 -0.000000
LeftFoot 23.967959 6.483837 -11.698366
LeftToeBase 0.159943 -0.000000 -0.000000
Spine 53.280665 -45.283918 -39.571168
RightShoulder -15.433890 -16.107885 -13.903536
RightArm 20.966780 -44.621823 66.847787
RightForeArm 6.976915 -0.000000 25.941083
RightHand 0.363121 -0.000000 3.761920
RightHandThumb1 -24.326973 -0.000000 -32.862282
LeftShoulder 3.225719 -18.363435 25.220892
LeftArm 64.936229 64.162006 -11.356833
LeftForeArm 25.170275 -0.000000 73.319164
LeftHand 7.448302 0.000000 -16.270128
LeftHandThumb1 -26.253704 0.000000 33.147579
Head 1.965106 -63.395531 4.974346
